<?xml version="1.0" encoding="UTF-8" standalone="no"?>
<!-- Created with Inkscape (http://www.inkscape.org/) -->

<svg
   xmlns:dc="http://purl.org/dc/elements/1.1/"
   xmlns:cc="http://creativecommons.org/ns#"
   xmlns:rdf="http://www.w3.org/1999/02/22-rdf-syntax-ns#"
   xmlns:svg="http://www.w3.org/2000/svg"
   xmlns="http://www.w3.org/2000/svg"
   xmlns:sodipodi="http://sodipodi.sourceforge.net/DTD/sodipodi-0.dtd"
   xmlns:inkscape="http://www.inkscape.org/namespaces/inkscape"
   width="22mm"
   height="22mm"
   viewBox="0 0 22 22"
   version="1.1"
   id="svg8"
   inkscape:version="0.92.2 (5c3e80d, 2017-08-06)"
   sodipodi:docname="favicon.svg">
  <defs
     id="defs2" />
  <sodipodi:namedview
     id="base"
     pagecolor="#ffffff"
     bordercolor="#666666"
     borderopacity="1.0"
     inkscape:pageopacity="0.0"
     inkscape:pageshadow="2"
     inkscape:zoom="1.4"
     inkscape:cx="45.016546"
     inkscape:cy="-173.71864"
     inkscape:document-units="mm"
     inkscape:current-layer="layer1"
     showgrid="false"
     inkscape:window-width="2400"
     inkscape:window-height="1271"
     inkscape:window-x="-9"
     inkscape:window-y="-9"
     inkscape:window-maximized="1"
     fit-margin-top="0"
     fit-margin-left="0"
     fit-margin-right="0"
     fit-margin-bottom="0" />
  <metadata
     id="metadata5">
    <rdf:RDF>
      <cc:Work
         rdf:about="">
        <dc:format>image/svg+xml</dc:format>
        <dc:type
           rdf:resource="http://purl.org/dc/dcmitype/StillImage" />
        <dc:title></dc:title>
      </cc:Work>
    </rdf:RDF>
  </metadata>
  <g
     inkscape:label="Layer 1"
     inkscape:groupmode="layer"
     id="layer1"
     transform="translate(-86.783188,-48.374485)">
    <g
       aria-label="ACM"
       style="font-style:normal;font-variant:normal;font-weight:normal;font-stretch:normal;font-size:10.58333302px;line-height:1.25;font-family:Righteous;-inkscape-font-specification:Righteous;letter-spacing:0px;word-spacing:0px;fill:#000000;fill-opacity:1;stroke:none;stroke-width:0.26458332"
       id="text12">
      <path
         d="m 91.553594,60.090202 v -1.483113 q 0,-0.304891 -0.118856,-0.573609 -0.113688,-0.273885 -0.315226,-0.475423 -0.201538,-0.201538 -0.475423,-0.315226 -0.268718,-0.118856 -0.573609,-0.118856 -0.304891,0 -0.578776,0.118856 -0.268717,0.113688 -0.470255,0.315226 -0.201538,0.201538 -0.320394,0.475423 -0.113688,0.268718 -0.113688,0.573609 v 1.483113 z m 1.483113,2.96106 h -1.483113 v -1.483114 h -2.966227 v 1.483114 h -1.477946 v -4.444173 q 0,-0.61495 0.232544,-1.152385 0.232544,-0.542602 0.630452,-0.945678 0.403076,-0.403076 0.940511,-0.63562 0.542603,-0.232544 1.157552,-0.232544 0.61495,0 1.152385,0.232544 0.542602,0.232544 0.945678,0.63562 0.403076,0.403076 0.63562,0.945678 0.232544,0.537435 0.232544,1.152385 z"
         style="font-style:normal;font-variant:normal;font-weight:normal;font-stretch:normal;font-family:Righteous;-inkscape-font-specification:Righteous;stroke-width:0.26458332"
         id="path3703" />
      <path
         d="m 100.2404,62.291618 q -0.516762,0.444418 -1.15755,0.682129 -0.640788,0.237712 -1.328084,0.237712 -0.5271,0 -1.018026,-0.139527 -0.485758,-0.134358 -0.914673,-0.382405 -0.423747,-0.253215 -0.775146,-0.604614 -0.3514,-0.3514 -0.604615,-0.775147 -0.248046,-0.428914 -0.387573,-0.914673 -0.134358,-0.490926 -0.134358,-1.018025 0,-0.5271 0.134358,-1.018026 0.139527,-0.490926 0.387573,-0.914673 0.253215,-0.428914 0.604615,-0.780314 0.351399,-0.3514 0.775146,-0.599447 0.428915,-0.253214 0.914673,-0.387573 0.490926,-0.139526 1.018026,-0.139526 0.687296,0 1.328084,0.237711 0.640788,0.232544 1.15755,0.682129 l -0.78548,1.291911 q -0.325561,-0.3514 -0.769979,-0.537435 -0.444417,-0.191203 -0.930175,-0.191203 -0.490926,0 -0.919841,0.186036 -0.428914,0.186035 -0.749308,0.506429 -0.320394,0.315226 -0.506429,0.749308 -0.186035,0.428914 -0.186035,0.914673 0,0.485758 0.186035,0.914673 0.186035,0.423746 0.506429,0.74414 0.320394,0.320394 0.749308,0.506429 0.428915,0.186035 0.919841,0.186035 0.485758,0 0.930175,-0.186035 0.444418,-0.191203 0.769979,-0.542602 z"
         style="font-style:normal;font-variant:normal;font-weight:normal;font-stretch:normal;font-family:Righteous;-inkscape-font-specification:Righteous;stroke-width:0.26458332"
         id="path3705" />
      <path
         d="m 108.45695,63.051262 h -1.47794 v -5.291667 q 0,-0.155029 -0.062,-0.289388 -0.0568,-0.134358 -0.1602,-0.232544 -0.0982,-0.103352 -0.23254,-0.160196 -0.13436,-0.05684 -0.28939,-0.05684 -0.15503,0 -0.28939,0.05684 -0.13436,0.05684 -0.23771,0.160196 -0.0982,0.09819 -0.15503,0.232544 -0.0568,0.134359 -0.0568,0.289388 v 5.291667 h -1.48311 v -5.291667 q 0,-0.155029 -0.0568,-0.289388 -0.0568,-0.134358 -0.1602,-0.232544 -0.0982,-0.103352 -0.23254,-0.160196 -0.13436,-0.05684 -0.28939,-0.05684 -0.15503,0 -0.28939,0.05684 -0.13436,0.05684 -0.23771,0.160196 -0.0982,0.09819 -0.15503,0.232544 -0.0568,0.134359 -0.0568,0.289388 v 5.291667 h -1.48312 v -5.291667 q 0,-0.45992 0.17053,-0.862996 0.1757,-0.408244 0.47543,-0.707967 0.30489,-0.304891 0.70796,-0.475423 0.40825,-0.1757 0.86817,-0.1757 0.41341,0 0.79582,0.149862 0.3824,0.144694 0.68729,0.423746 0.30489,-0.279052 0.68213,-0.423746 0.38241,-0.149862 0.79582,-0.149862 0.45992,0 0.86299,0.1757 0.40825,0.170532 0.70797,0.475423 0.30489,0.299723 0.47542,0.707967 0.1757,0.403076 0.1757,0.862996 z"
         style="font-style:normal;font-variant:normal;font-weight:normal;font-stretch:normal;font-family:Righteous;-inkscape-font-specification:Righteous;stroke-width:0.26458332"
         id="path3707" />
    </g>
  </g>
</svg>
